<svg id="Group_150" data-name="Group 150" xmlns="http://www.w3.org/2000/svg" xmlns:xlink="http://www.w3.org/1999/xlink" width="274" height="130.929" viewBox="0 0 274 130.929">
  <defs>
    <clipPath id="clip-path">
      <rect id="Rectangle_154" data-name="Rectangle 154" width="274" height="130.929" fill="none"/>
    </clipPath>
  </defs>
  <g id="Group_149" data-name="Group 149" clip-path="url(#clip-path)">
    <path id="Path_228" data-name="Path 228" d="M53.364,93.7l12.47-12.471,5.03,5.031L84.341,72.777,97.819,86.255l5.03-5.031,12.457,12.459.425.432a32.7,32.7,0,1,0-63,.221Z" transform="translate(-18.837 -19.283)" fill="#fdbf00"/>
    <path id="Path_229" data-name="Path 229" d="M114.061,111.258l-9.649-9.649-5.03,5.031L85.9,93.162,72.427,106.64l-5.03-5.031-9.66,9.661-1.959,1.993a32.71,32.71,0,0,0,60.062-.2Zm-45.62-.809-1.331-4.915,8.838,9.358Zm20.149-4.915-7.767,5.807,7.227-7.251L85.9,96.169l21.872,23.158Zm17.323,4.915-1.331-4.915,8.838,9.358Z" transform="translate(-20.4 -34.073)" fill="#fdbf00"/>
    <path id="Path_230" data-name="Path 230" d="M65.474,104.012A38.4,38.4,0,1,1,101.1,51.276L126.3,41.09A64.923,64.923,0,0,0,111.828,19.1h-.02a65.745,65.745,0,0,0-92.666,0H19.12a65.772,65.772,0,0,0,0,92.727l0-.017a65.745,65.745,0,0,0,92.7,0,64.938,64.938,0,0,0,14.385-21.77L101.127,79.895a38.416,38.416,0,0,1-35.653,24.117" transform="translate(0 0)" fill="#d00029" fill-rule="evenodd"/>
    <path id="Path_231" data-name="Path 231" d="M121.113,87.455h10.232l2.788,2.788v3.063l-.261.261h-4.12l-.275-.261v-1.47l-.92-.92h-4.794l-.934.8V95.16l.673.536h7.7q.755,0,2.926,2.665v6.771l-2.926,2.925H120.975l-2.925-2.925v-3.05l.261-.275h4.121l.275.275v1.593l.92.92h5.054l.8-.92v-3.461l-.66-.659h-8.1l-2.527-2.528V90.38Z" transform="translate(-43.176 -31.986)" fill="#0c2f60"/>
    <path id="Path_232" data-name="Path 232" d="M146.693,87.455h12.952l.275.275v3.063l-.275.289h-8.639v4.725h7.8l.275.275v3.063l-.275.289h-7.8v5h8.776l.275.289v3.063l-.275.275H146.693l-.275-.275V87.73Z" transform="translate(-53.551 -31.986)" fill="#0c2f60"/>
    <path id="Path_233" data-name="Path 233" d="M175.5,87.455q.329,0,7.1,13.364l.138.138h.138v-.138l-.014-13.089.151-.275h3.626l.275.275v20.053l-.275.275h-4.464q-1.25-1.868-7.1-13.5h-.138v13.227l-.275.275H171.17l-.4-.316-.014-20.149.138-.138Z" transform="translate(-62.453 -31.986)" fill="#0c2f60"/>
    <path id="Path_234" data-name="Path 234" d="M199.56,87.455h4l.261.261V107.8l-.261.261h-4l-.261-.261V87.716Z" transform="translate(-72.892 -31.986)" fill="#0c2f60"/>
    <path id="Path_235" data-name="Path 235" d="M213.3,87.455h10.026l3.2,3.2v14.2l-3.2,3.2H213.3l-3.2-3.2v-14.2Zm1.538,4.739V103.47l1.112,1.112h4.588l1.249-1.112V92.194l-1.112-1.112h-4.725Z" transform="translate(-76.844 -31.986)" fill="#0c2f60"/>
    <path id="Path_236" data-name="Path 236" d="M251.7,87.455l3.063,3.063v6.263l-2.514,2.651,2.788,8.488-.138.138h-4.312q-.33,0-2.788-8.076h-4.588v7.8l-.289.275h-4.038l-.4-.357-.014-20.108.138-.137Zm-8.488,3.337v5.988h5.837l1.112-1.112V91.9l-1.112-1.112Z" transform="translate(-87.219 -31.986)" fill="#0c2f60"/>
    <path id="Path_237" data-name="Path 237" d="M284.721,87.455h10.163l2.926,2.925v3.063l-.275.275H293.5l-.288-.275V91.905l-.825-.824h-5.013l-1.263.962v11.427l1.263,1.25h4.862l.976-.975v-3.488h-4.038l-.275-.275V97.056l.275-.275h8.5l.275.275v7.938l-3.063,3.063H284.721l-3.2-3.2v-14.2Z" transform="translate(-102.964 -31.986)" fill="#0c2f60"/>
    <path id="Path_238" data-name="Path 238" d="M322.422,87.455q.426,0,5.851,20.464l-.138.138h-4.312q-.371-.221-1.4-4.588h-6.675q-.92,4.588-1.25,4.588h-3.9l-.275-.275,5.562-20.19.138-.138Zm-3.337,2.925-2.363,9.464H321.6l-2.376-9.464Z" transform="translate(-113.497 -31.986)" fill="#0c2f60"/>
    <path id="Path_239" data-name="Path 239" d="M342.416,87.455h6.648q.4.329,4.793,16.221.289,0,3.324-11.166,1.483-5.055,1.73-5.054h6.648l.124.138h.138l.055,20.2-.453.261h-3.859l-.261-.261V91.314h-.137q-4.656,16.743-5.054,16.743h-4.78q-.4,0-5.054-16.88h-.138V107.8l-.261.261h-3.461l-.261-.261V87.716Z" transform="translate(-125.14 -31.986)" fill="#0c2f60"/>
    <path id="Path_240" data-name="Path 240" d="M382.577,87.455h12.952l.275.275v3.063l-.275.289H386.89v4.725h7.8l.275.275v3.063l-.275.289h-7.8v5h8.776l.275.289v3.063l-.275.275H382.577l-.275-.275V87.73Z" transform="translate(-139.824 -31.986)" fill="#0c2f60"/>
    <path id="Path_241" data-name="Path 241" d="M409.7,87.455h10.232l2.788,2.788v3.063l-.261.261h-4.12l-.275-.261v-1.47l-.92-.92h-4.794l-.934.8V95.16l.673.536H419.8q.755,0,2.926,2.665v6.771l-2.926,2.925H409.567l-2.925-2.925v-3.05l.261-.275h4.121l.275.275v1.593l.92.92h5.054l.8-.92v-3.461l-.66-.659h-8.1l-2.527-2.528V90.38Z" transform="translate(-148.726 -31.986)" fill="#0c2f60"/>
    <path id="Path_242" data-name="Path 242" d="M275.025,65.964a6.274,6.274,0,0,1,6.45-6.487,5.564,5.564,0,0,1,4.757,2.483l-1.3.733a4.214,4.214,0,0,0-3.459-1.824,5.1,5.1,0,0,0,0,10.191,4.265,4.265,0,0,0,3.459-1.824l1.317.714a5.644,5.644,0,0,1-4.776,2.5,6.274,6.274,0,0,1-6.45-6.487" transform="translate(-100.588 -21.753)" fill="#0c2f60"/>
    <path id="Path_243" data-name="Path 243" d="M295.066,65.964a6.238,6.238,0,1,1,12.466,0,6.238,6.238,0,1,1-12.466,0m10.85,0c0-2.933-1.824-5.1-4.626-5.1-2.821,0-4.606,2.162-4.606,5.1,0,2.915,1.785,5.1,4.606,5.1,2.8,0,4.626-2.181,4.626-5.1" transform="translate(-107.918 -21.753)" fill="#0c2f60"/>
    <path id="Path_244" data-name="Path 244" d="M318.22,72.345V59.8h1.561v11.15h5.829v1.392Z" transform="translate(-116.386 -21.872)" fill="#0c2f60"/>
    <path id="Path_245" data-name="Path 245" d="M331.353,65.964a6.238,6.238,0,1,1,12.466,0,6.238,6.238,0,1,1-12.466,0m10.849,0c0-2.933-1.824-5.1-4.626-5.1-2.82,0-4.607,2.162-4.607,5.1,0,2.915,1.787,5.1,4.607,5.1,2.8,0,4.626-2.181,4.626-5.1" transform="translate(-121.189 -21.753)" fill="#0c2f60"/>
    <path id="Path_246" data-name="Path 246" d="M362.09,72.345l-3.178-4.982h-2.519v4.982h-1.561V59.8h5.039a3.669,3.669,0,0,1,3.949,3.78,3.48,3.48,0,0,1-3.272,3.648l3.384,5.114Zm.113-8.762a2.337,2.337,0,0,0-2.519-2.388h-3.291v4.8h3.291a2.361,2.361,0,0,0,2.519-2.408" transform="translate(-129.777 -21.872)" fill="#0c2f60"/>
    <path id="Path_247" data-name="Path 247" d="M381.089,72.345l-1.109-2.8h-6.243l-1.109,2.8h-1.787L375.9,59.8h1.936l5.039,12.542ZM376.859,61.4l-2.651,6.768h5.321Z" transform="translate(-135.632 -21.872)" fill="#0c2f60"/>
    <path id="Path_248" data-name="Path 248" d="M392.394,72.345V59.8h4.287a6.273,6.273,0,1,1,0,12.541Zm9.1-6.261a4.586,4.586,0,0,0-4.813-4.888h-2.726v9.759h2.726a4.612,4.612,0,0,0,4.813-4.87" transform="translate(-143.515 -21.873)" fill="#0c2f60"/>
    <path id="Path_249" data-name="Path 249" d="M412.345,65.964a6.238,6.238,0,1,1,12.466,0,6.238,6.238,0,1,1-12.466,0m10.849,0c0-2.933-1.824-5.1-4.626-5.1-2.82,0-4.607,2.162-4.607,5.1,0,2.915,1.787,5.1,4.607,5.1,2.8,0,4.626-2.181,4.626-5.1" transform="translate(-150.811 -21.753)" fill="#0c2f60"/>
    <path id="Path_250" data-name="Path 250" d="M356.566,132.8v-4.476h1.973a1.4,1.4,0,1,1,0,2.8h-1.188V132.8Zm2.625-3.074a.7.7,0,0,0-.759-.711h-1.08v1.416h1.08a.7.7,0,0,0,.759-.7" transform="translate(-130.411 -46.933)" fill="#171819"/>
    <path id="Path_251" data-name="Path 251" d="M362.982,133.463v-3.241h.7v.469a1.408,1.408,0,0,1,1.054-.55v.7a.986.986,0,0,0-.215-.02,1.105,1.105,0,0,0-.839.437v2.207Z" transform="translate(-132.757 -47.598)" fill="#171819"/>
    <path id="Path_252" data-name="Path 252" d="M366.346,131.838a1.638,1.638,0,0,1,1.644-1.7,1.6,1.6,0,0,1,1.591,1.758v.174h-2.5a.981.981,0,0,0,1.027.892,1.365,1.365,0,0,0,.926-.362l.321.463a1.917,1.917,0,0,1-1.314.476,1.626,1.626,0,0,1-1.7-1.7m1.638-1.12a.887.887,0,0,0-.906.852H368.9a.873.873,0,0,0-.92-.852" transform="translate(-133.988 -47.598)" fill="#171819"/>
    <path id="Path_253" data-name="Path 253" d="M372.116,133.033l.322-.5a1.664,1.664,0,0,0,1.094.449c.422,0,.644-.174.644-.429,0-.637-1.96-.181-1.96-1.429,0-.53.457-.98,1.276-.98a1.853,1.853,0,0,1,1.255.45l-.3.5a1.318,1.318,0,0,0-.958-.389c-.37,0-.6.174-.6.4,0,.57,1.959.141,1.959,1.43,0,.577-.477,1.013-1.349,1.013a1.965,1.965,0,0,1-1.389-.51" transform="translate(-136.098 -47.598)" fill="#171819"/>
    <path id="Path_254" data-name="Path 254" d="M377.24,131.838a1.638,1.638,0,0,1,1.644-1.7,1.6,1.6,0,0,1,1.591,1.758v.174h-2.5a.981.981,0,0,0,1.027.892,1.365,1.365,0,0,0,.926-.362l.321.463a1.917,1.917,0,0,1-1.314.476,1.626,1.626,0,0,1-1.7-1.7m1.638-1.12a.887.887,0,0,0-.906.852H379.8a.873.873,0,0,0-.92-.852" transform="translate(-137.972 -47.598)" fill="#171819"/>
    <path id="Path_255" data-name="Path 255" d="M385.638,133.463v-2.026c0-.51-.261-.671-.657-.671a1.105,1.105,0,0,0-.833.429v2.268h-.7v-3.241h.7v.436a1.545,1.545,0,0,1,1.147-.517.934.934,0,0,1,1.047,1.04v2.281Z" transform="translate(-140.241 -47.598)" fill="#171819"/>
    <path id="Path_256" data-name="Path 256" d="M389.38,132.24v-1.872h-.537v-.611h.537v-.886h.7v.886h.658v.611h-.658v1.7c0,.221.108.389.308.389a.44.44,0,0,0,.309-.121l.168.537a.955.955,0,0,1-.658.209.747.747,0,0,1-.832-.839" transform="translate(-142.216 -47.133)" fill="#171819"/>
    <path id="Path_257" data-name="Path 257" d="M392.525,131.838a1.638,1.638,0,0,1,1.644-1.7,1.6,1.6,0,0,1,1.591,1.758v.174h-2.5a.981.981,0,0,0,1.027.892,1.36,1.36,0,0,0,.925-.362l.324.463a1.923,1.923,0,0,1-1.315.476,1.626,1.626,0,0,1-1.7-1.7m1.638-1.12a.886.886,0,0,0-.906.852h1.825a.873.873,0,0,0-.92-.852" transform="translate(-143.562 -47.598)" fill="#171819"/>
    <path id="Path_258" data-name="Path 258" d="M400.9,132.8v-.444a1.3,1.3,0,0,1-1.041.525c-.825,0-1.436-.632-1.436-1.706a1.5,1.5,0,0,1,1.436-1.7,1.264,1.264,0,0,1,1.041.53v-1.685h.7V132.8Zm0-.981v-1.281a1.054,1.054,0,0,0-.833-.436,1.09,1.09,0,0,0,0,2.153,1.052,1.052,0,0,0,.833-.436" transform="translate(-145.719 -46.933)" fill="#171819"/>
    <path id="Path_259" data-name="Path 259" d="M407.61,132.8v-4.476h.7v1.685a1.283,1.283,0,0,1,1.041-.53,1.5,1.5,0,0,1,1.442,1.7c0,1.074-.611,1.7-1.442,1.7a1.313,1.313,0,0,1-1.041-.524v.443Zm1.543-.544a1.092,1.092,0,0,0,0-2.154,1.063,1.063,0,0,0-.839.436v1.288a1.06,1.06,0,0,0,.839.429" transform="translate(-149.08 -46.933)" fill="#171819"/>
    <path id="Path_260" data-name="Path 260" d="M413.456,134.147a.746.746,0,0,0,.268.054.442.442,0,0,0,.47-.282l.162-.369-1.335-3.281h.758l.946,2.429.946-2.429h.752l-1.563,3.825a1.077,1.077,0,0,1-1.107.731,1.964,1.964,0,0,1-.4-.047Z" transform="translate(-151.058 -47.645)" fill="#171819"/>
    <path id="Path_261" data-name="Path 261" d="M342.949,152.7h1.717l1.3,2.421,1.29-2.421h1.706v3.645H347.9l.053-2.815-1.578,2.815h-.864l-1.551-2.815.032,2.815h-1.045Z" transform="translate(-125.43 -55.848)" fill="#c12c25"/>
    <path id="Path_262" data-name="Path 262" d="M357.686,152.7v.825h-2.873v.629h2.708v.721h-2.708v.645h2.911v.825h-3.977V152.7Z" transform="translate(-129.38 -55.848)" fill="#c12c25"/>
    <path id="Path_263" data-name="Path 263" d="M361.234,152.7h1.749l2.188,2.77-.027-2.77h1.04v3.645h-1.765l-2.155-2.743.027,2.743h-1.056Z" transform="translate(-132.118 -55.848)" fill="#c12c25"/>
    <path id="Path_264" data-name="Path 264" d="M371.469,153.6h-1.583v-.9h4.249v.9h-1.584v2.743h-1.082Z" transform="translate(-135.282 -55.848)" fill="#c12c25"/>
    <path id="Path_265" data-name="Path 265" d="M381.3,152.693a1,1,0,0,1,.919.978,7.541,7.541,0,0,1,.033.885c0,.88-.094,1.235-.407,1.492a1.668,1.668,0,0,1-1.062.295c-.2.011-.688.017-1.045.017a10.436,10.436,0,0,1-1.541-.06.968.968,0,0,1-.781-.492,2.67,2.67,0,0,1-.176-1.333,3.426,3.426,0,0,1,.077-1.011.935.935,0,0,1,.731-.716,6.018,6.018,0,0,1,1.612-.109,11.086,11.086,0,0,1,1.64.055m-2.739.967c-.148.115-.193.295-.193.819s.044.733.181.847.33.142,1.172.142c.963,0,1.161-.033,1.287-.207.105-.131.133-.317.133-.8,0-.918-.016-.929-1.392-.929-.82,0-1.046.027-1.189.131" transform="translate(-137.974 -55.826)" fill="#c12c25"/>
    <path id="Path_266" data-name="Path 266" d="M386.3,152.7h3.065c.629,0,.906.055,1.109.23a1.2,1.2,0,0,1,.3.973c0,.677-.16.945-.613,1.049.443.076.577.268.566.819v.574h-1.1v-.453c-.005-.394-.112-.476-.6-.464h-1.658v.918H386.3Zm2.767,1.836c.523,0,.623-.065.623-.426,0-.235-.021-.334-.09-.41s-.171-.1-.5-.1h-1.727v.94Z" transform="translate(-141.285 -55.848)" fill="#c12c25"/>
    <path id="Path_267" data-name="Path 267" d="M395.538,155.163c.011.251.039.311.171.361a3.337,3.337,0,0,0,.749.055c1.3,0,1.45-.038,1.45-.339a.289.289,0,0,0-.187-.295c-.121-.039-.121-.039-.7-.044h-1.014a2.6,2.6,0,0,1-1.2-.158c-.265-.137-.386-.426-.386-.923,0-.656.187-.935.717-1.06a6.681,6.681,0,0,1,1.532-.1c1.29,0,1.588.033,1.852.2s.336.393.336.94H397.77c0-.317-.11-.361-.832-.361-.359,0-.838.011-1.015.022-.3.022-.4.1-.4.306a.274.274,0,0,0,.237.29,1.809,1.809,0,0,0,.452.027h1.041c.1,0,.6.016.783.027.7.033.976.339.976,1.071,0,.672-.2.967-.739,1.082a9.211,9.211,0,0,1-1.62.093c-1.273,0-1.554-.027-1.879-.191-.226-.109-.342-.388-.342-.82,0-.032,0-.1.006-.18Z" transform="translate(-144.257 -55.832)" fill="#c12c25"/>
    <path id="Path_268" data-name="Path 268" d="M343.284,141.422h2.425l1.83,3.461,1.823-3.461h2.41v5.21h-1.491l.075-4.023-2.23,4.023h-1.22l-2.192-4.023.045,4.023h-1.477Z" transform="translate(-125.553 -51.724)" fill="#30669c"/>
    <path id="Path_269" data-name="Path 269" d="M364.329,141.422v1.18H360.18v.9h3.91v1.031h-3.91v.922h4.2v1.18H358.64v-5.21Z" transform="translate(-131.169 -51.724)" fill="#30669c"/>
    <path id="Path_270" data-name="Path 270" d="M369.388,141.422h4.538c1.111,0,1.631.125,1.993.485a1.762,1.762,0,0,1,.464,1.273c.016.242.032.6.032.852a9.889,9.889,0,0,1-.079,1.3,1.4,1.4,0,0,1-1.1,1.218,4.826,4.826,0,0,1-1.1.078h-4.751Zm4.278,3.969a1.575,1.575,0,0,0,.655-.063c.385-.117.488-.391.488-1.289,0-1.093-.189-1.321-1.111-1.321h-2.71v2.672Z" transform="translate(-135.1 -51.724)" fill="#30669c"/>
    <rect id="Rectangle_152" data-name="Rectangle 152" width="1.529" height="5.21" transform="translate(242.395 89.698)" fill="#30669c"/>
    <path id="Path_271" data-name="Path 271" d="M393.04,144.752A2.961,2.961,0,0,1,392.9,146c-.209.445-.643.656-1.48.71-.33.032-.974.039-2.043.039-1.544,0-2.042-.07-2.477-.344-.53-.328-.683-.875-.683-2.422,0-1.375.16-1.867.724-2.179a4.834,4.834,0,0,1,2.5-.344c2,0,2.437.039,2.9.258.434.211.635.672.635,1.437v.172h-1.56c-.032-.57-.153-.617-1.569-.617-1.335,0-1.576.031-1.777.2s-.233.382-.233,1.226c0,1.25.121,1.344,1.688,1.344a4.489,4.489,0,0,0,1.617-.1c.233-.093.322-.257.322-.632Z" transform="translate(-141.253 -51.739)" fill="#30669c"/>
    <path id="Path_272" data-name="Path 272" d="M400.59,141.422h2.094l2.81,5.211h-1.709l-.507-.93h-3.31l-.493.93H397.7Zm2.141,3.2-1.109-2.078-1.093,2.078Z" transform="translate(-145.457 -51.724)" fill="#30669c"/>
    <path id="Path_273" data-name="Path 273" d="M411,141.423h4.338c.89,0,1.283.077,1.57.328a1.719,1.719,0,0,1,.43,1.39c0,.969-.227,1.352-.868,1.5.627.109.816.382.8,1.172v.82h-1.554v-.649c-.008-.562-.159-.679-.845-.664h-2.346v1.313H411Zm3.915,2.625c.74,0,.883-.094.883-.609,0-.336-.03-.476-.128-.585-.114-.125-.241-.149-.7-.149h-2.444v1.344Z" transform="translate(-150.32 -51.724)" fill="#30669c"/>
    <path id="Path_274" data-name="Path 274" d="M428.591,141.422v1.18h-4.2v.9h3.962v1.031h-3.962v.922h4.257v1.18h-5.817v-5.21Z" transform="translate(-154.646 -51.724)" fill="#30669c"/>
    <path id="Path_275" data-name="Path 275" d="M406.815,152.7h1.1v2.743h2.477v.9h-3.573Z" transform="translate(-148.789 -55.848)" fill="#30669c"/>
    <path id="Path_276" data-name="Path 276" d="M413.29,152.7h1.1v2.743h2.477v.9H413.29Z" transform="translate(-151.157 -55.848)" fill="#30669c"/>
    <path id="Path_277" data-name="Path 277" d="M424.443,154.956a2.077,2.077,0,0,1-.1.875c-.145.311-.447.459-1.029.5-.229.022-.677.027-1.42.027-1.074,0-1.42-.049-1.723-.24-.369-.23-.475-.612-.475-1.694,0-.962.112-1.307.5-1.525a3.342,3.342,0,0,1,1.739-.24c1.392,0,1.695.027,2.014.18.3.148.441.47.441,1.005v.12h-1.085c-.022-.4-.106-.432-1.09-.432-.928,0-1.1.022-1.236.142s-.162.268-.162.858c0,.874.084.94,1.174.94a3.123,3.123,0,0,0,1.125-.071c.162-.065.223-.18.223-.443Z" transform="translate(-153.5 -55.833)" fill="#30669c"/>
    <rect id="Rectangle_153" data-name="Rectangle 153" width="1.073" height="1.017" transform="translate(271.996 99.479)" fill="#30669c"/>
  </g>
</svg>
